#!OML:ASF H:\Terrain\Patient Classification 1\Walking\steve\steve.ASF
:FULLY-SPECIFIED
:DEGREES
256
root 8.75339 16.4232 10.7594 9.74532 -1.81994 -0.513772
lowerback 1.17363 1.90412 4.76644
upperback -2.76416 2.76455 2.67634
thorax -3.41946 1.28772 -0.0189272
lowerneck -9.75287 -0.766854 -0.777912
upperneck 15.0021 -0.599429 -1.94763
head 6.15175 -0.484808 -0.537747
rclavicle 1.49089e-014 -1.74931e-014
rhumerus -35.2083 5.92935 -83.2918
rradius 48.3041
rwrist -6.56699
rhand -19.9505 -38.1175
rfingers 7.12502
rthumb 6.38765 -68.0012
lclavicle 1.49089e-014 -1.74931e-014
lhumerus -42.0465 -4.75737 90.3548
lradius 22.4823
lwrist -0.303041
lhand -17.0376 -17.0694
lfingers 7.12502
lthumb 9.19909 12.7099
rfemur -24.5897 0.595757 26.5524
rtibia 41.9437
rfoot -21.3841 11.8693
rtoes 3.36207
lfemur -27.2574 7.88697 -21.2192
ltibia 54.0097
lfoot -17.2839 -2.13892
ltoes -11.0914
257
root 8.75573 16.4465 10.926 9.74798 -1.76977 -0.0649908
lowerback 0.950091 2.00279 4.29188
upperback -2.80236 2.86587 2.5356
thorax -3.34281 1.35044 0.103436
lowerneck -9.71923 -0.899152 -0.936827
upperneck 15.2992 -0.750373 -1.93628
head 6.24005 -0.568063 -0.521648
rclavicle -2.93207e-014 -4.77083e-015
rhumerus -34.8188 6.29152 -83.2107
rradius 49.0483
rwrist -7.3508
rhand -20.0315 -36.7167
rfingers 7.12502
rthumb 6.30944 -66.6027
lclavicle -2.93207e-014 -4.77083e-015
lhumerus -43.0122 -4.88785 90.5366
lradius 22.4403
lwrist 0.230509
lhand -17.6989 -17.439
lfingers 7.12502
lthumb 8.56096 12.3675
rfemur -23.5999 -0.0421713 25.9803
rtibia 41.282
rfoot -21.1322 12.7393
rtoes 4.52767
lfemur -28.6599 7.40857 -21.8035
ltibia 53.0266
lfoot -17.9096 -2.26054
ltoes -10.0162
258
root 8.76252 16.4582 11.0985 9.61214 -2.09908 -0.53033
lowerback 0.86796 2.22069 4.7213
upperback -2.82909 3.1644 2.57791
thorax -3.29721 1.4886 -0.097849
lowerneck -9.2604 -0.928529 -1.08141
upperneck 15.268 -0.816797 -1.68205
head 6.1521 -0.586077 -0.419634
rclavicle -7.85199e-015 3.18055e-015
rhumerus -34.5178 6.51062 -83.2222
rradius 49.6896
rwrist -7.95831
rhand -19.8215 -37.3304
rfingers 7.12502
rthumb 6.51218 -67.2102
lclavicle -7.85199e-015 3.18055e-015
lhumerus -44.1051 -4.82826 90.4384
lradius 22.4878
lwrist 0.439864
lhand -17.9323 -17.6935
lfingers 7.12502
lthumb 8.33571 12.122
rfemur -22.3905 -0.244926 26.3988
rtibia 40.6694
rfoot -21.0029 13.3755
rtoes 4.47653
lfemur -29.7658 7.56498 -21.345
ltibia 51.991
lfoot -18.6948 -2.48456
ltoes -11.4818
259
root 8.7644 16.4673 11.2576 9.58733 -2.32491 -0.861342
lowerback 0.837716 2.36815 4.96053
upperback -2.89089 3.36849 2.5896
thorax -3.3256 1.58261 -0.224405
lowerneck -9.16922 -0.907667 -0.924823
upperneck 15.5586 -0.797775 -1.75438
head 6.22707 -0.575181 -0.467798
rclavicle -1.4561e-014 6.36111e-015
rhumerus -33.9454 6.8776 -83.2824
rradius 50.0324
rwrist -8.47207
rhand -19.6064 -39.0284
rfingers 7.12502
rthumb 6.71977 -68.9018
lclavicle -1.4561e-014 6.36111e-015
lhumerus -45.0383 -4.70842 90.2279
lradius 22.3883
lwrist 0.52399
lhand -16.6381 -18.065
lfingers 7.12502
lthumb 9.5845 11.697
rfemur -21.4191 -0.531527 26.6912
rtibia 40.1683
rfoot -21.1456 13.6955
rtoes 2.19618
lfemur -30.8772 7.93531 -21.1856
ltibia 50.6688
lfoot -19.1293 -2.27744
ltoes -15.0507
260
root 8.76796 16.481 11.4127 9.55572 -2.66776 -1.0755
lowerback 0.840828 2.552 5.06534
upperback -2.87824 3.61524 2.57197
thorax -3.29776 1.70306 -0.307638
lowerneck -9.41583 -0.917559 -0.720301
upperneck 16.0111 -0.801153 -1.94146
head 6.41167 -0.583911 -0.565329
rclavicle 1.31695e-014 -2.22639e-014
rhumerus -33.1814 7.4073 -83.2913
rradius 50.4017
rwrist -8.90526
rhand -19.417 -38.8196
rfingers 7.12502
rthumb 6.90264 -68.6871
lclavicle 1.31695e-014 -2.22639e-014
lhumerus -45.7213 -4.72551 90.114
lradius 22.2001
lwrist 0.820483
lhand -12.0353 -19.2183
lfingers 7.12502
lthumb 14.023 10.2887
rfemur -20.4625 -0.750992 26.815
rtibia 39.4976
rfoot -20.8199 14.0011
rtoes 0.579845
lfemur -31.9306 8.2627 -21.2052
ltibia 49.2421
lfoot -19.3158 -1.27409
ltoes -19.5652
261
root 8.77886 16.5073 11.584 9.40607 -3.02742 -0.973392
lowerback 0.648557 2.73703 5.01138
upperback -2.7043 3.83246 2.42198
thorax -2.99242 1.8193 -0.423239
lowerneck -9.44992 -0.939549 -0.815639
upperneck 16.0702 -0.851005 -1.72293
head 6.43756 -0.596462 -0.484576
rclavicle 3.45885e-014 -3.10104e-014
rhumerus -32.3328 7.7833 -83.2652
rradius 50.7844
rwrist -9.21112
rhand -18.5702 -40.1957
rfingers 7.12502
rthumb 7.72002 -70.0348
lclavicle 3.45885e-014 -3.10104e-014
lhumerus -46.2773 -4.67669 89.934
lradius 22.1485
lwrist 1.1651
lhand -19.6763 -21.029
lfingers 7.12502
lthumb 6.65227 8.84647
rfemur -19.255 -1.17805 26.5226
rtibia 38.7082
rfoot -20.012 14.8604
rtoes 1.74825
lfemur -32.7178 8.24113 -21.4505
ltibia 47.659
lfoot -19.3956 0.0643869
ltoes -23.045
